<?xml version="1.0" encoding="UTF-8"?>
<svg id="Layer_2" data-name="Layer 2" xmlns="http://www.w3.org/2000/svg" viewBox="0 0 267.28 76.92">
  <defs>
    <style>
      .cls-1 {
        fill: #ee4746;
      }

      .cls-2 {
        fill: #066164;
      }
    </style>
  </defs>
  <g id="Layer_1-2" data-name="Layer 1">
    <g>
      <g>
        <rect class="cls-1" x="202.65" y="1.55" width="15.85" height="24.79" rx="1.92" ry="1.92" transform="translate(45.65 -117.71) rotate(34.81)"/>
        <path class="cls-2" d="m212.88,37.26s-.02-.02-.02-.03c-2.04-2.62-2.1-6.28-.19-9l9.56-13.66c.86-1.22,2.08-2.17,3.52-2.58,1.21-.34,2.71-.4,4.27.42.85.45,1.56,1.14,2.11,1.93l6.55,9.32c.12.17.29.3.48.38l8.71,3.43c1,.39,1.8,1.25,1.97,2.31.11.69-.06,1.43-.94,1.97-.81.49-1.81.54-2.71.23l-9.78-3.35c-.24-.08-.45-.23-.61-.44l-5.28-6.81c-.29-.38-.86-.37-1.15.01l-8.68,11.71c-.23.31-.25.73-.05,1.07l6.72,11.28c.13.22.23.46.28.72l3.34,15.4c.27,1.26.13,2.6-.51,3.72s-1.71,2-3.45,1.05c-1.25-.68-2.1-1.92-2.43-3.3l-3.34-13.96c-.07-.3-.2-.58-.38-.82l-7.57-10.45c-.14-.19-.27-.37-.42-.55Z"/>
        <path class="cls-2" d="m201.99,45.25c-8.75,0-15.84,7.09-15.84,15.84s7.09,15.84,15.84,15.84,15.84-7.09,15.84-15.84-7.09-15.84-15.84-15.84Zm0,29.11c-7.33,0-13.27-5.94-13.27-13.27s5.94-13.27,13.27-13.27,13.27,5.94,13.27,13.27-5.94,13.27-13.27,13.27Z"/>
        <path class="cls-2" d="m251.44,45.25c-8.75,0-15.84,7.09-15.84,15.84s7.09,15.84,15.84,15.84,15.84-7.09,15.84-15.84-7.09-15.84-15.84-15.84Zm0,29.11c-7.33,0-13.27-5.94-13.27-13.27s5.94-13.27,13.27-13.27,13.27,5.94,13.27,13.27-5.94,13.27-13.27,13.27Z"/>
        <circle class="cls-2" cx="201.99" cy="61.08" r="2.41"/>
        <circle class="cls-2" cx="251.44" cy="61.08" r="2.41"/>
        <rect class="cls-2" x="246.93" y="29.45" width="1.86" height="30.17" transform="translate(-3.67 56.79) rotate(-12.97)"/>
        <rect class="cls-2" x="230.16" y="21.47" width="1.86" height="30.17" transform="translate(245.38 -196.98) rotate(84.51)"/>
        <rect class="cls-2" x="235.87" y="34.57" width="1.86" height="30.17" transform="translate(85.8 -139.4) rotate(39.54)"/>
        <rect class="cls-2" x="209.11" y="33.88" width="1.86" height="30.17" transform="translate(68.33 -113.61) rotate(35.8)"/>
        <rect class="cls-2" x="214.34" y="47.07" width="1.86" height="30.17" transform="translate(288.23 -149.69) rotate(92.9)"/>
        <path class="cls-2" d="m234.29,12.64c3.31,0,5.99-2.64,6.08-5.92h-12.17c.09,3.28,2.78,5.92,6.08,5.92Z"/>
        <path class="cls-2" d="m243.84,5.11h-3.63c-.65-2.67-3.05-4.66-5.92-4.66-3.15,0-5.75,2.39-6.06,5.46h15.68c.2,0,.37-.16.37-.37,0-.24-.2-.44-.44-.44Z"/>
      </g>
      <g>
        <rect class="cls-1" x="1.99" y="49.64" width="54.58" height="2.87" rx=".43" ry=".43"/>
        <rect class="cls-1" x="10.05" y="57.39" width="54.58" height="2.87" rx=".43" ry=".43"/>
        <rect class="cls-1" x="0" y="65.15" width="54.58" height="2.87" rx=".43" ry=".43"/>
        <rect class="cls-1" x="17.3" y="72.9" width="54.58" height="2.87" rx=".43" ry=".43"/>
      </g>
      <g>
        <path class="cls-1" d="m0,5.25h13.8c4.72,0,8.25.68,10.56,2.04,2.32,1.36,3.47,3.79,3.47,7.3,0,3.88-1.41,6.56-4.22,8.03-2.63,1.35-6.31,2.02-11.03,2.02h-.38v12.58h5.87v.89H0v-.89h3.05V6.14H0v-.89Zm12.2.89v17.6h.99c1.88,0,3.18-.64,3.9-1.92.72-1.28,1.08-3.36,1.08-6.24v-2.25c0-2.66-.34-4.52-1.01-5.59-.67-1.06-1.9-1.6-3.68-1.6h-1.27Z"/>
        <path class="cls-1" d="m47.69,37.21l-3.43-10.14h-9.29l-3.61,10.14h3.52v.89h-7.18v-.89h2.21L41.87,4.96h3.85l11.83,32.25h2.16v.89h-15.35v-.89h3.33Zm-7.89-23.47l-4.41,12.3h8.5l-4.08-12.3Z"/>
        <path class="cls-1" d="m78.9,21.49h-2.49v15.72h3.05v.89h-15.26v-.89h3.05V6.14h-3.05v-.89h14.18c4.07,0,6.95.21,8.66.63,1.7.42,2.9.93,3.59,1.53,1.5,1.22,2.25,3.16,2.25,5.82s-.66,4.56-1.97,5.7c-1.31,1.14-3.32,1.82-6.01,2.04v.14c2.53.35,4.3,1.1,5.3,2.25,1,1.16,1.5,3.1,1.5,5.82v2.49c0,1.63.09,2.72.26,3.29.17.56.54.84,1.1.84s1.01-.26,1.34-.77.63-1.6.92-3.26l.8.09c-.34,2.66-.95,4.44-1.81,5.35s-2.57,1.36-5.14,1.36-4.39-.6-5.47-1.81-1.62-3.47-1.62-6.78v-3.43c0-1.75-.23-3.03-.68-3.85-.45-.81-1.29-1.22-2.51-1.22Zm-2.49-15.35v14.46h1.5c1.78,0,3.11-.55,3.97-1.64.86-1.1,1.29-2.88,1.29-5.35v-1.36c0-2.47-.42-4.11-1.24-4.91-.83-.8-2.15-1.2-3.97-1.2h-1.55Z"/>
        <path class="cls-1" d="m118.47,5.67c-4.85,0-7.28,4.68-7.28,14.03v3.71c0,4.44.64,7.93,1.92,10.44,1.28,2.52,3.18,3.78,5.68,3.78,3.44,0,6.6-3.35,9.48-10.05h.84l-.33,10.47h-.52c-.19-.34-.36-.59-.52-.73-.16-.14-.38-.21-.68-.21s-1.43.24-3.4.73c-1.97.49-3.97.73-6.01.73-5.1,0-9.05-1.38-11.85-4.13-2.8-2.75-4.2-6.89-4.2-12.42s1.46-9.79,4.39-12.79c2.93-3,6.86-4.51,11.81-4.51,1.91,0,3.78.24,5.61.73,1.83.49,2.9.73,3.22.73s.55-.07.7-.21c.16-.14.33-.38.52-.73h.52l.38,10.19h-.84c-1.41-3.16-2.86-5.58-4.34-7.25-1.49-1.67-3.18-2.51-5.09-2.51Z"/>
        <path class="cls-1" d="m136.59,5.25h24.41l.47,9.29h-.84c-1.31-3.16-2.69-5.33-4.13-6.5-1.44-1.17-3.55-1.76-6.34-1.76h-1.64v14.5h1.6c1.47,0,2.71-.56,3.71-1.67,1-1.11,1.71-2.61,2.11-4.48h.7v13.89h-.8c-.56-2.35-1.32-4.02-2.28-5.02-.95-1-2.26-1.5-3.92-1.5h-1.13v15.07h1.78c2.88,0,5.33-.86,7.35-2.58,2.02-1.72,3.4-3.93,4.15-6.62h.94l-.38,10.23h-25.77v-1.03h2.77V6.28h-2.77v-1.03Z"/>
        <path class="cls-1" d="m169.4,5.25h16.9v1.03h-4.97v30.79h1.69c2.66,0,4.78-.81,6.36-2.44,1.58-1.63,3.18-4.13,4.81-7.51h.99l-.89,10.98h-24.88v-1.03h2.77V6.28h-2.77v-1.03Z"/>
      </g>
      <g>
        <path class="cls-2" d="m76.47,48.84h11.51c3.57,0,6.24.48,8.02,1.44,1.78.96,2.68,2.58,2.68,4.87,0,3.52-2.12,5.62-6.35,6.31v.08c5.13.64,7.7,2.87,7.7,6.7,0,2.8-1.05,4.75-3.16,5.87-2.1,1.12-5.13,1.67-9.08,1.67h-11.31v-.73h2.5v-25.48h-2.5v-.73Zm10.01.73v11.85h1c1.33,0,2.26-.4,2.79-1.21.52-.81.79-2.05.79-3.71v-1.81c0-1.9-.23-3.23-.69-3.98-.46-.76-1.35-1.14-2.65-1.14h-1.23Zm0,12.58v12.89h1.81c1.41,0,2.4-.49,2.96-1.46.56-.97.85-2.41.85-4.31v-2.04c0-1.69-.35-2.96-1.04-3.81s-1.92-1.27-3.69-1.27h-.88Z"/>
        <path class="cls-2" d="m104.71,48.84h12.01v.73h-2.23v11.93h7.66v-11.93h-2.27v-.73h12.05v.73h-2.27v25.48h2.27v.73h-12.05v-.73h2.27v-12.55h-7.66v12.55h2.23v.73h-12.01v-.73h2.27v-25.48h-2.27v-.73Z"/>
        <path class="cls-2" d="m152.24,75.04l-2.81-8.31h-7.62l-2.96,8.31h2.89v.73h-5.89v-.73h1.81l9.81-26.44h3.16l9.7,26.44h1.77v.73h-12.58v-.73h2.73Zm-6.46-19.24l-3.62,10.08h6.96l-3.35-10.08Z"/>
        <path class="cls-2" d="m166.17,48.84h11.74v.73h-2.12v25.48h2.12v.73h-11.74v-.73h2.12v-25.48h-2.12v-.73Z"/>
      </g>
    </g>
  </g>
</svg>